<?xml version="1.0" encoding="utf-8"?>
<!-- Generator: Adobe Illustrator 26.0.3, SVG Export Plug-In . SVG Version: 6.00 Build 0)  -->
<svg version="1.1" id="Capa_1" xmlns="http://www.w3.org/2000/svg" xmlns:xlink="http://www.w3.org/1999/xlink" x="0px" y="0px"
	 viewBox="0 0 103.25 103.25" style="enable-background:new 0 0 103.25 103.25;" xml:space="preserve">
<style type="text/css">
	.st0{fill:#E30613;}
</style>
<path class="st0" d="M51.63,0C23.11,0,0,23.11,0,51.63c0,28.51,23.11,51.63,51.63,51.63c28.51,0,51.63-23.11,51.63-51.63
	C103.25,23.11,80.14,0,51.63,0z M68.72,24.36l-7.47-0.04c-5.86-0.04-7.01,2.83-7.04,7.04l-0.06,9.29l13.97,0.08l-1.91,14.55
	l-12.15-0.07l-0.23,37.34l-14.57-0.09l0.23-37.34l-12.18-0.07l0.09-14.56l12.18,0.07l0.06-10.73c0.08-12.46,7.49-19.2,18.27-19.13
	c5.16,0.03,9.59,0.45,10.88,0.64L68.72,24.36z"/>
</svg>
