<?xml version="1.0" encoding="utf-8"?>
<!-- Generator: Adobe Illustrator 26.0.3, SVG Export Plug-In . SVG Version: 6.00 Build 0)  -->
<svg version="1.1" id="Capa_1" xmlns="http://www.w3.org/2000/svg" xmlns:xlink="http://www.w3.org/1999/xlink" x="0px" y="0px"
	 viewBox="0 0 103.25 103.25" style="enable-background:new 0 0 103.25 103.25;" xml:space="preserve">
<style type="text/css">
	.st0{fill:#E30613;}
</style>
<circle class="st0" cx="51.63" cy="51.63" r="11.8"/>
<path class="st0" d="M79.22,30.75c-0.64-1.65-1.41-2.83-2.65-4.07c-1.24-1.24-2.42-2.01-4.07-2.65c-1.25-0.49-3.12-1.06-6.57-1.22
	c-3.73-0.17-4.85-0.21-14.3-0.21s-10.57,0.04-14.3,0.21c-3.45,0.16-5.32,0.73-6.57,1.22c-1.65,0.64-2.83,1.41-4.07,2.65
	c-1.24,1.24-2.01,2.42-2.65,4.07c-0.48,1.25-1.06,3.12-1.22,6.57c-0.17,3.73-0.21,4.85-0.21,14.3c0,9.45,0.04,10.57,0.21,14.3
	c0.16,3.45,0.73,5.32,1.22,6.57c0.64,1.65,1.41,2.83,2.65,4.07c1.24,1.24,2.42,2.01,4.07,2.65c1.25,0.49,3.12,1.06,6.57,1.22
	c3.73,0.17,4.85,0.21,14.3,0.21s10.57-0.04,14.3-0.21c3.45-0.16,5.32-0.73,6.57-1.22c1.65-0.64,2.83-1.41,4.07-2.65
	c1.24-1.24,2.01-2.42,2.65-4.07c0.48-1.25,1.06-3.12,1.22-6.57c0.17-3.73,0.21-4.85,0.21-14.3c0-9.45-0.04-10.57-0.21-14.3
	C80.28,33.87,79.7,32,79.22,30.75z M51.63,69.8c-10.04,0-18.17-8.14-18.17-18.17s8.14-18.17,18.17-18.17
	c10.04,0,18.18,8.14,18.18,18.17S61.66,69.8,51.63,69.8z M70.52,36.98c-2.34,0-4.25-1.9-4.25-4.25s1.9-4.25,4.25-4.25
	c2.35,0,4.25,1.9,4.25,4.25S72.86,36.98,70.52,36.98z"/>
<path class="st0" d="M51.63,0C23.11,0,0,23.11,0,51.63c0,28.51,23.11,51.63,51.63,51.63c28.51,0,51.63-23.11,51.63-51.63
	C103.25,23.11,80.14,0,51.63,0z M86.8,66.22c-0.17,3.77-0.77,6.34-1.64,8.59c-0.9,2.33-2.11,4.3-4.08,6.27
	c-1.97,1.97-3.94,3.18-6.27,4.08c-2.25,0.88-4.82,1.47-8.59,1.65c-3.78,0.17-4.98,0.21-14.59,0.21c-9.61,0-10.82-0.04-14.59-0.21
	c-3.77-0.17-6.34-0.77-8.59-1.65c-2.33-0.9-4.3-2.11-6.27-4.08c-1.97-1.97-3.18-3.94-4.08-6.27c-0.88-2.25-1.47-4.82-1.64-8.59
	c-0.17-3.77-0.22-4.98-0.22-14.59c0-9.61,0.04-10.82,0.22-14.59c0.17-3.77,0.77-6.34,1.64-8.59c0.9-2.33,2.11-4.3,4.08-6.27
	c1.97-1.97,3.94-3.18,6.27-4.08c2.25-0.88,4.82-1.47,8.59-1.65c3.78-0.17,4.98-0.21,14.59-0.21c9.61,0,10.82,0.04,14.59,0.21
	c3.77,0.17,6.34,0.77,8.59,1.65c2.33,0.9,4.3,2.11,6.27,4.08c1.97,1.97,3.18,3.94,4.08,6.27c0.88,2.25,1.47,4.82,1.64,8.59
	c0.17,3.78,0.22,4.98,0.22,14.59C87.02,61.24,86.98,62.44,86.8,66.22z"/>
</svg>
