<?xml version="1.0" encoding="utf-8"?>
<!-- Generator: Adobe Illustrator 26.0.3, SVG Export Plug-In . SVG Version: 6.00 Build 0)  -->
<svg version="1.1" id="Capa_1" xmlns="http://www.w3.org/2000/svg" xmlns:xlink="http://www.w3.org/1999/xlink" x="0px" y="0px"
	 viewBox="0 0 103.25 103.25" style="enable-background:new 0 0 103.25 103.25;" xml:space="preserve">
<style type="text/css">
	.st0{fill:#E30613;}
</style>
<path class="st0" d="M51.63,0C23.11,0,0,23.11,0,51.63c0,28.51,23.11,51.63,51.63,51.63c28.51,0,51.63-23.11,51.63-51.63
	C103.25,23.11,80.14,0,51.63,0z M84.81,44.5c-3.34-0.22-6.44-0.29-9.36-1.5c-2.85-1.18-5.66-2.44-8.59-3.71
	c-0.71,1.25-0.46,2.55-0.49,3.7c-0.1,4.73,0.04,9.46,0.04,14.19c0,3.56,0.04,7.13-0.18,10.68c-0.4,6.63-3.36,12.08-8.32,16.41
	c-4.95,4.32-10.82,6.14-17.34,5.67c-5.28-0.38-9.91-2.48-13.98-5.87c-3.84-3.2-6.26-7.31-7.52-12.06c-0.84-3.15-0.85-6.4-0.42-9.69
	c0.56-4.34,2.35-8.07,5.01-11.42c3.48-4.37,7.97-7.27,13.4-8.52c2.65-0.61,5.4-0.88,8.22-0.05c0,4.09,0,8.16,0,12.38
	c-0.82,0-1.51,0.01-2.21,0c-4.43-0.05-8.02,1.64-10.44,5.37c-2.3,3.55-2.55,7.4-0.53,11.12c1.03,1.91,2.57,3.52,4.64,4.55
	c3.71,1.84,7.4,1.93,11.06,0.05c3.76-1.94,5.92-5.1,5.95-9.36c0.06-9.83-0.07-19.65-0.1-29.48c-0.03-7.17-0.03-14.33-0.03-21.5
	c0-0.69,0.12-1.38,0.19-2.15c4.15-0.1,8.1-0.27,12.25,0.5c0.65,2.95,1.04,6.15,2.84,8.85c1.75,2.62,3.94,4.83,6.68,6.4
	c2.78,1.58,5.79,2.58,9.12,2.94C85.05,36.18,84.71,40.23,84.81,44.5z"/>
</svg>
