<?xml version="1.0" encoding="utf-8"?>
<!-- Generator: Adobe Illustrator 26.0.3, SVG Export Plug-In . SVG Version: 6.00 Build 0)  -->
<svg version="1.1" id="Capa_1" xmlns="http://www.w3.org/2000/svg" xmlns:xlink="http://www.w3.org/1999/xlink" x="0px" y="0px"
	 viewBox="0 0 103.25 103.25" style="enable-background:new 0 0 103.25 103.25;" xml:space="preserve">
<style type="text/css">
	.st0{fill:#E30613;}
</style>
<path class="st0" d="M42.48,41.02c-0.12-0.07-0.31-0.03-0.67-0.05c-0.18,2.39,0,4.74,0.01,7.08c0.01,2.43,0.03,4.86,0.08,7.29
	c0.05,2.33-0.12,4.68,0.22,7.15c0.56-0.2,0.94-0.28,1.25-0.47c5.95-3.44,11.9-6.89,18.16-10.52c-0.41-0.22-0.6-0.33-0.79-0.44
	C54.65,47.71,48.57,44.36,42.48,41.02z"/>
<path class="st0" d="M51.63,0C23.11,0,0,23.11,0,51.63c0,28.51,23.11,51.63,51.63,51.63c28.51,0,51.63-23.11,51.63-51.63
	C103.25,23.11,80.14,0,51.63,0z M88.13,59.31c-0.2,3.41-0.34,6.84-1.39,10.14c-1.09,3.41-3.47,5.52-6.93,6.13
	c-2.98,0.53-6.02,0.81-9.05,1c-8.88,0.56-17.77,0.81-26.67,0.64c-5.69-0.11-11.37-0.37-17.05-0.72c-2.23-0.14-4.52-0.38-6.48-1.72
	c-1.79-1.22-3.13-2.76-3.79-4.86c-0.89-2.82-1.15-5.74-1.41-8.65c-0.53-5.84-0.54-11.7-0.27-17.56c0.15-3.24,0.35-6.51,1.28-9.66
	c1.09-3.7,3.65-5.84,7.38-6.52c4.69-0.84,9.45-0.97,14.19-1.14c4.86-0.17,9.72-0.27,15.74-0.44c5.9,0.17,12.97,0.34,20.04,0.6
	c1.93,0.07,3.87,0.29,5.76,0.66c3.59,0.71,6.05,2.8,7.13,6.37c0.9,2.98,1.12,6.07,1.37,9.15C88.43,48.26,88.45,53.79,88.13,59.31z"
	/>
</svg>
